<svg id="Layer_1" data-name="Layer 1" xmlns="http://www.w3.org/2000/svg" viewBox="0 0 200 200"><defs><style>.cls-1{fill:#231f20;}.cls-2{fill:#010101;}.cls-3,.cls-4,.cls-5{fill:none;stroke-miterlimit:10;}.cls-3,.cls-5{stroke:#231f20;}.cls-3,.cls-4{stroke-linecap:round;}.cls-4{stroke:#000;}.cls-5{stroke-width:0.5px;}</style></defs><title>taylor_logo-white</title><path class="cls-1" d="M163.29,167.36a40.13,40.13,0,0,1-2.13,13.36,29.65,29.65,0,0,1-6,10.29,27.07,27.07,0,0,1-9.41,6.62A30.3,30.3,0,0,1,133.6,200a29.92,29.92,0,0,1-12.07-2.37,27.27,27.27,0,0,1-9.34-6.62,30.4,30.4,0,0,1-6.09-10.29,38.88,38.88,0,0,1-2.18-13.36,38.47,38.47,0,0,1,2.18-13.31,30,30,0,0,1,6.15-10.23,27.23,27.23,0,0,1,9.4-6.56A30.28,30.28,0,0,1,133.6,135a30.72,30.72,0,0,1,12,2.31,26.37,26.37,0,0,1,9.39,6.56,30.37,30.37,0,0,1,6.1,10.23A38.47,38.47,0,0,1,163.29,167.36Zm-14.67,0q0-9.23-4-14.61a14.06,14.06,0,0,0-22.12,0q-4,5.38-4,14.61t4,14.78a14,14,0,0,0,22.12,0Q148.62,176.7,148.62,167.36Z"/><line class="cls-1" x1="141.31" y1="161.15" x2="173.54" y2="130.87"/><path class="cls-1" d="M141.31,164.26a3.11,3.11,0,0,1-2.14-5.38l32.24-30.28a3.12,3.12,0,0,1,4.27,4.54l-32.24,30.28A3.12,3.12,0,0,1,141.31,164.26Z"/><circle cx="174.43" cy="129.86" r="9.37"/><line class="cls-1" x1="139.38" y1="143.81" x2="153.27" y2="97.32"/><rect class="cls-1" x="122.07" y="117.45" width="48.52" height="6.23" transform="translate(-11.1 226.23) rotate(-73.36)"/><circle cx="152.82" cy="98.8" r="9.37"/><line class="cls-1" x1="121.31" y1="145.87" x2="112.03" y2="127.69"/><rect class="cls-1" x="113.56" y="126.57" width="6.22" height="20.42" transform="translate(-49.44 68.03) rotate(-27.05)"/><circle cx="110.2" cy="124.11" r="9.37"/><path class="cls-2" d="M64.74,61.77a3.11,3.11,0,0,1-.36-6.2c4.21-.51,14.67-1.77,23.61-8.63A26.05,26.05,0,0,1,72,29c-3.33-12.21.24-22.52,9.31-26.9C91-2.55,102.5.73,107.4,9.64c5.16,9.35.83,23.08-7,33.43,8.81.14,18.38-3.28,23.64-9.09,2.82-3.13,4.34-7.54,4.52-13.12a3.06,3.06,0,0,1,3.21-3,3.1,3.1,0,0,1,3,3.21c-.23,7.09-2.29,12.84-6.12,17.09-7.51,8.31-21.15,12.58-33.39,10.73-11,10.55-25.4,12.3-30.15,12.87ZM90.43,6.26A14.59,14.59,0,0,0,84,7.74c-7.41,3.57-8,12.49-6,19.65,2.58,9.45,9.53,13.22,15.16,14.71,7.78-8.74,13.09-21.66,8.79-29.46A13,13,0,0,0,90.43,6.26Z"/><path d="M57.42,68.22c2.45,0,4.4-3.84,4.4-8.57s-2-8.58-4.4-8.58S53,54.92,53,59.65,55,68.22,57.42,68.22Zm0,131.78L44.17,59.65c0-9.95,5.93-18,13.25-18s13.24,8.09,13.24,18Z"/><path class="cls-3" d="M44.17,59.65c0-9.95,5.93-18,13.25-18s13.24,8.09,13.24,18"/><line class="cls-3" x1="44.17" y1="59.65" x2="57.42" y2="200"/><line class="cls-4" x1="57.42" y1="200" x2="70.66" y2="59.65"/><ellipse class="cls-5" cx="57.42" cy="59.65" rx="4.4" ry="8.57"/><path class="cls-1" d="M3.11,79.43a3.14,3.14,0,0,1-1.33-.3A3.11,3.11,0,0,1,.3,75c1.59-3.32,7.81-14.49,21.46-18.45A34.41,34.41,0,0,1,44.88,58a3.11,3.11,0,0,1-2.46,5.71A28.35,28.35,0,0,0,23.49,62.5C12.33,65.75,7.22,74.92,5.93,77.66A3.12,3.12,0,0,1,3.11,79.43Z"/></svg>