<?xml version="1.0" encoding="utf-8"?>
<!-- Generator: Adobe Illustrator 23.0.6, SVG Export Plug-In . SVG Version: 6.00 Build 0)  -->
<svg version="1.1" id="Layer_1" xmlns="http://www.w3.org/2000/svg" xmlns:xlink="http://www.w3.org/1999/xlink" x="0px" y="0px"
	 viewBox="0 0 1054 1054" style="enable-background:new 0 0 1054 1054;" xml:space="preserve">
<style type="text/css">
	.st0{fill:#FFFFFF;}
</style>
<g>
	<path class="st0" d="M150.3,399.5v29.6H92.4v158.7H57.9V429.1H0v-29.6H150.3z"/>
	<path class="st0" d="M211.2,442.1c10.9,0,20,1.4,27.4,4.1c7.4,2.7,13.4,6.5,17.8,11.4c4.4,4.9,7.6,10.8,9.5,17.8
		c1.9,7,2.9,14.6,2.9,23v86.1c-5.1,1.1-12.7,2.4-23,3.9c-10.2,1.5-21.8,2.3-34.6,2.3c-8.5,0-16.3-0.8-23.4-2.4
		c-7.1-1.6-13.1-4.3-18.1-7.9c-5-3.6-8.9-8.3-11.7-14.1c-2.8-5.8-4.2-12.9-4.2-21.5c0-8.2,1.6-15,4.8-20.7
		c3.2-5.6,7.5-10.2,12.9-13.7c5.4-3.5,11.7-6.1,18.9-7.6c7.2-1.5,14.6-2.3,22.4-2.3c3.6,0,7.4,0.2,11.4,0.7c4,0.5,8.2,1.2,12.8,2.3
		v-5.4c0-3.8-0.5-7.4-1.4-10.9c-0.9-3.4-2.5-6.5-4.8-9.1c-2.3-2.6-5.3-4.7-9-6.1c-3.7-1.4-8.4-2.2-14-2.2c-7.6,0-14.6,0.5-20.9,1.6
		c-6.3,1.1-11.5,2.4-15.5,3.8l-4.1-26.6c4.2-1.4,10.2-2.9,18.2-4.3S202.1,442.1,211.2,442.1z M213.9,564.7c10.2,0,17.8-0.5,23.1-1.6
		v-36.4c-1.8-0.5-4.4-1.1-7.9-1.6c-3.4-0.5-7.3-0.8-11.4-0.8c-3.6,0-7.3,0.3-11,0.8c-3.7,0.5-7.1,1.5-10.1,3c-3,1.4-5.4,3.5-7.2,6.1
		c-1.8,2.6-2.7,5.9-2.7,9.9c0,7.8,2.4,13.2,7.3,16.2C198.9,563.2,205.5,564.7,213.9,564.7z"/>
	<path class="st0" d="M471.7,590.5c-9.8-0.2-17.9-1.3-24.3-3.3c-6.4-2-11.6-4.9-15.4-8.6c-3.8-3.7-6.5-8.3-8-13.9
		c-1.5-5.5-2.3-11.8-2.3-18.9V382.3l32.9-5.4v162.8c0,4,0.3,7.3,1,10.1c0.6,2.7,1.8,5,3.4,6.9c1.6,1.9,3.8,3.4,6.7,4.3
		c2.8,1,6.4,1.8,10.7,2.3L471.7,590.5z"/>
	<path class="st0" d="M631.5,516.6c0,11.2-1.6,21.5-4.9,30.7c-3.3,9.2-7.9,17.1-13.9,23.6s-13.2,11.6-21.6,15.2
		c-8.4,3.6-17.7,5.4-27.9,5.4s-19.4-1.8-27.7-5.4c-8.3-3.6-15.5-8.7-21.5-15.2c-6-6.5-10.6-14.4-14-23.6c-3.4-9.2-5-19.5-5-30.7
		s1.7-21.4,5-30.6c3.4-9.1,8.1-17,14.1-23.5c6.1-6.5,13.3-11.5,21.6-15.1c8.3-3.5,17.5-5.3,27.4-5.3s19.2,1.8,27.6,5.3
		c8.4,3.5,15.6,8.6,21.6,15.1c6,6.5,10.6,14.4,14,23.5C629.8,495.2,631.5,505.4,631.5,516.6z M597.8,516.6c0-14.1-3-25.3-9.1-33.6
		c-6.1-8.2-14.5-12.4-25.4-12.4s-19.3,4.1-25.4,12.4c-6.1,8.2-9.1,19.4-9.1,33.6c0,14.3,3,25.6,9.1,34s14.5,12.5,25.4,12.5
		s19.3-4.2,25.4-12.5S597.8,530.9,597.8,516.6z"/>
	<path class="st0" d="M746.5,475.3c-2.7-0.9-6.5-1.9-11.3-2.9c-4.8-1-10.4-1.5-16.7-1.5c-3.6,0-7.5,0.4-11.6,1.1
		c-4.1,0.7-6.9,1.4-8.6,1.9v113.9h-32.9V452.5c6.3-2.4,14.3-4.6,23.8-6.7c9.5-2.1,20.1-3.1,31.7-3.1c2.2,0,4.7,0.1,7.6,0.4
		c2.9,0.3,5.8,0.6,8.7,1.1c2.9,0.5,5.7,1,8.4,1.6c2.7,0.6,4.9,1.2,6.5,1.8L746.5,475.3z"/>
	<g>
		<path class="st0" d="M357,272.9c-3.6,0-6.6-2.7-7.1-6.3c-0.5-3.9,2.3-7.5,6.2-8c9.7-1.2,33.7-4.1,54.2-19.8
			c-18.5-7.3-31.4-21.6-36.8-41.2c-7.7-28.1,0.5-51.7,21.4-61.8c22.3-10.8,48.7-3.2,60,17.3c11.8,21.5,1.9,53-16.1,76.8
			c0.5,0,0.9,0,1.4,0c20.3,0,41.1-7.8,52.9-20.9c6.5-7.2,10-17.3,10.4-30.1c0.1-3.9,3.3-6.9,7.2-6.9c0.1,0,0.1,0,0.2,0
			c3.9,0.1,7,3.4,6.9,7.4c-0.5,16.3-5.3,29.5-14.1,39.3c-17.2,19.1-48.6,28.9-76.7,24.6c-25.2,24.2-58.3,28.3-69.3,29.6
			C357.6,272.9,357.3,272.9,357,272.9z M416.1,145.4c-5,0-10,1.1-14.8,3.4c-17,8.2-18.3,28.7-13.8,45.2
			c5.9,21.7,21.9,30.4,34.8,33.8c17.9-20.1,30.1-49.8,20.2-67.7C437.4,150.7,427,145.4,416.1,145.4z"/>
		<g>
			<g id="XMLID_5_">
				<g>
					<path class="st0" d="M370.7,268l-30.5,322.5L309.7,268c0-22.9,13.6-41.4,30.4-41.4S370.7,245.1,370.7,268z M350.3,268
						c0-10.9-4.5-19.7-10.1-19.7c-5.5,0-10.1,8.8-10.1,19.7s4.6,19.7,10.1,19.7C345.8,287.7,350.3,278.9,350.3,268z"/>
					<ellipse class="st0" cx="340.2" cy="268" rx="10.1" ry="19.7"/>
				</g>
				<g>
				</g>
			</g>
		</g>
		<path class="st0" d="M215.4,313.5c-1,0-2.1-0.2-3.1-0.7c-3.6-1.7-5.1-6-3.4-9.5c3.7-7.6,18-33.3,49.3-42.4
			c23.3-6.8,43.3-0.7,53.1,3.5c3.6,1.6,5.3,5.8,3.8,9.4c-1.6,3.6-5.8,5.3-9.4,3.8c-8.1-3.5-24.4-8.4-43.5-2.9
			c-25.6,7.4-37.4,28.5-40.4,34.8C220.6,312,218.1,313.5,215.4,313.5z"/>
	</g>
</g>
<g>
	<path class="st0" d="M186.2,811.9c0,16.1-2.4,30.3-7.2,42.7c-4.8,12.3-11.3,22.6-19.6,30.9c-8.2,8.2-17.9,14.4-28.9,18.6
		c-11.1,4.2-22.8,6.2-35.3,6.2c-12.5,0-24.3-2.1-35.5-6.2c-11.1-4.2-20.8-10.4-29.1-18.6c-8.2-8.2-14.8-18.5-19.7-30.9
		C6,842.3,3.6,828,3.6,811.9c0-16.1,2.4-30.3,7.3-42.5c4.9-12.2,11.6-22.5,20-30.9c8.4-8.3,18.2-14.6,29.2-18.7
		c11.1-4.2,22.7-6.3,35.1-6.3c12.3,0,24,2.1,35.1,6.3s20.7,10.4,28.9,18.7c8.2,8.3,14.8,18.6,19.7,30.9
		C183.8,781.6,186.2,795.8,186.2,811.9z M39.2,811.9c0,10.3,1.3,19.7,3.8,28.1c2.5,8.4,6.2,15.6,11,21.5
		c4.8,5.9,10.6,10.5,17.5,13.7c6.9,3.3,14.7,4.9,23.4,4.9c8.5,0,16.2-1.6,23.1-4.9c6.9-3.3,12.7-7.8,17.5-13.7
		c4.8-5.9,8.5-13,11-21.5c2.5-8.4,3.8-17.8,3.8-28.1c0-10.3-1.3-19.7-3.8-28.1c-2.5-8.4-6.2-15.6-11-21.5
		c-4.8-5.9-10.6-10.5-17.5-13.7c-6.9-3.3-14.6-4.9-23.1-4.9c-8.7,0-16.5,1.6-23.4,4.9c-6.9,3.3-12.7,7.9-17.5,13.9
		c-4.8,6-8.5,13.1-11,21.5C40.5,792.3,39.2,801.6,39.2,811.9z"/>
	<path class="st0" d="M303.1,793.7c-2.7-0.9-6.5-1.9-11.3-2.9c-4.8-1-10.4-1.5-16.7-1.5c-3.6,0-7.5,0.4-11.6,1.1
		c-4.1,0.7-6.9,1.4-8.6,1.9v113.9h-32.9V770.9c6.3-2.4,14.3-4.6,23.8-6.7s20.1-3.1,31.7-3.1c2.2,0,4.7,0.1,7.6,0.4s5.8,0.6,8.7,1.1
		c2.9,0.5,5.7,1,8.4,1.6c2.7,0.6,4.9,1.2,6.5,1.8L303.1,793.7z"/>
	<path class="st0" d="M381,908.9c-9.8-0.2-17.9-1.3-24.3-3.3c-6.4-2-11.6-4.9-15.4-8.6c-3.8-3.7-6.5-8.3-8-13.9
		c-1.5-5.5-2.3-11.8-2.3-18.9V700.8l32.9-5.4v162.8c0,4,0.3,7.3,1,10.1c0.6,2.7,1.8,5,3.4,6.9c1.6,1.9,3.8,3.4,6.7,4.3
		c2.8,1,6.4,1.8,10.7,2.3L381,908.9z"/>
	<path class="st0" d="M459.6,760.6c10.9,0,20,1.4,27.4,4.1c7.4,2.7,13.4,6.5,17.8,11.4c4.4,4.9,7.6,10.8,9.5,17.8
		c1.9,7,2.9,14.6,2.9,23V903c-5.1,1.1-12.7,2.4-23,3.9c-10.2,1.5-21.8,2.3-34.6,2.3c-8.5,0-16.3-0.8-23.4-2.4
		c-7.1-1.6-13.1-4.3-18.1-7.9c-5-3.6-8.9-8.3-11.7-14.1c-2.8-5.8-4.2-12.9-4.2-21.5c0-8.2,1.6-15,4.8-20.7
		c3.2-5.6,7.5-10.2,12.9-13.7c5.4-3.5,11.7-6.1,18.9-7.6c7.2-1.5,14.6-2.3,22.4-2.3c3.6,0,7.4,0.2,11.4,0.7c4,0.5,8.2,1.2,12.8,2.3
		v-5.4c0-3.8-0.5-7.4-1.4-10.9c-0.9-3.4-2.5-6.5-4.8-9.1c-2.3-2.6-5.3-4.7-9-6.1c-3.7-1.4-8.4-2.2-14-2.2c-7.6,0-14.6,0.5-20.9,1.6
		c-6.3,1.1-11.5,2.4-15.5,3.8l-4.1-26.6c4.2-1.4,10.2-2.9,18.2-4.3C442,761.3,450.5,760.6,459.6,760.6z M462.3,883.1
		c10.2,0,17.8-0.5,23.1-1.6v-36.4c-1.8-0.5-4.4-1.1-7.9-1.6c-3.4-0.5-7.3-0.8-11.4-0.8c-3.6,0-7.3,0.3-11,0.8
		c-3.7,0.5-7.1,1.5-10.1,3c-3,1.4-5.4,3.5-7.2,6.1c-1.8,2.6-2.7,5.9-2.7,9.9c0,7.8,2.4,13.2,7.3,16.2
		C447.4,881.6,454,883.1,462.3,883.1z"/>
	<path class="st0" d="M557.4,768.7c6.3-1.8,14.6-3.5,24.7-5.2c10.1-1.6,21.4-2.4,33.7-2.4c11.6,0,21.3,1.6,29.1,4.8
		c7.8,3.2,14,7.6,18.6,13.3c4.6,5.7,7.9,12.6,9.8,20.7s2.9,16.9,2.9,26.5v79.9h-32.9v-74.7c0-7.6-0.5-14.1-1.5-19.4
		c-1-5.3-2.6-9.7-4.9-13c-2.3-3.4-5.4-5.8-9.2-7.3c-3.9-1.5-8.6-2.3-14.3-2.3c-4.2,0-8.5,0.3-13,0.8c-4.5,0.5-7.9,1-10.1,1.4v114.7
		h-32.9V768.7z"/>
	<path class="st0" d="M836.5,901.9c-6.5,2-14.7,3.8-24.6,5.4c-9.9,1.6-20.2,2.4-31.1,2.4c-11.2,0-21.3-1.7-30.2-5.2
		c-8.9-3.4-16.4-8.4-22.7-14.8c-6.2-6.4-11.1-14.2-14.4-23.4c-3.4-9.1-5-19.4-5-30.8c0-11.2,1.4-21.4,4.2-30.6
		c2.8-9.1,6.9-17,12.4-23.5c5.4-6.5,12-11.5,19.8-15.1c7.8-3.5,16.8-5.3,26.9-5.3c6.9,0,12.9,0.8,18.2,2.4c5.3,1.6,9.8,3.4,13.6,5.4
		v-68.2l32.9-5.4V901.9z M742.2,834.7c0,14.5,3.4,25.9,10.3,34.1c6.9,8.2,16.4,12.4,28.5,12.4c5.3,0,9.7-0.2,13.5-0.7
		c3.7-0.4,6.7-1,9.1-1.5v-81.5c-2.9-2-6.7-3.8-11.5-5.6c-4.8-1.7-9.9-2.6-15.4-2.6c-12,0-20.7,4.1-26.2,12.2
		C745,809.7,742.2,820.8,742.2,834.7z"/>
	<path class="st0" d="M1006.9,835c0,11.2-1.6,21.5-4.9,30.7c-3.3,9.2-7.9,17.1-13.9,23.6s-13.2,11.6-21.6,15.2
		c-8.4,3.6-17.7,5.4-27.9,5.4s-19.4-1.8-27.7-5.4c-8.3-3.6-15.5-8.7-21.5-15.2s-10.6-14.4-14-23.6c-3.4-9.2-5-19.5-5-30.7
		c0-11.2,1.7-21.4,5-30.6c3.4-9.1,8.1-17,14.1-23.5c6.1-6.5,13.3-11.5,21.6-15.1c8.3-3.5,17.5-5.3,27.4-5.3s19.2,1.8,27.6,5.3
		c8.4,3.5,15.6,8.6,21.6,15.1c6,6.5,10.6,14.4,14,23.5C1005.2,813.6,1006.9,823.8,1006.9,835z M973.2,835c0-14.1-3-25.3-9.1-33.6
		c-6.1-8.2-14.5-12.4-25.4-12.4c-10.9,0-19.3,4.1-25.4,12.4c-6.1,8.2-9.1,19.4-9.1,33.6c0,14.3,3,25.6,9.1,34
		c6.1,8.3,14.5,12.5,25.4,12.5c10.9,0,19.3-4.2,25.4-12.5C970.1,860.6,973.2,849.3,973.2,835z"/>
	<g>
		<g>
			<line class="st0" x1="956.4" y1="820.8" x2="1030.4" y2="751.2"/>
			<path class="st0" d="M956.4,827.9c-1.9,0-3.8-0.8-5.2-2.3c-2.7-2.9-2.6-7.4,0.3-10.1l74.1-69.6c2.9-2.7,7.4-2.6,10.1,0.3
				c2.7,2.9,2.6,7.4-0.3,10.1L961.3,826C959.9,827.3,958.1,827.9,956.4,827.9z"/>
		</g>
		<circle class="st0" cx="1032.5" cy="748.9" r="21.5"/>
	</g>
	<g>
		<g>
			<line class="st0" x1="951.9" y1="780.9" x2="983.8" y2="674.1"/>
			
				<rect x="912.2" y="720.4" transform="matrix(0.2864 -0.9581 0.9581 0.2864 -6.3373 1446.507)" class="st0" width="111.5" height="14.3"/>
		</g>
		<circle class="st0" cx="982.8" cy="677.5" r="21.5"/>
	</g>
	<g>
		<g>
			<line class="st0" x1="910.4" y1="785.7" x2="889.1" y2="743.9"/>
			
				<rect x="892.6" y="741.3" transform="matrix(0.8906 -0.4548 0.4548 0.8906 -249.3792 492.9049)" class="st0" width="14.3" height="46.9"/>
		</g>
		<circle class="st0" cx="884.9" cy="735.7" r="21.5"/>
	</g>
</g>
</svg>
